# Tiled2Unity generated file. Do not modify by hand.
# Wavefront file for 'test_area2_mesh_0004.obj'

# Vertices (Count = 80)
v -480 -384 0
v -496 -384 0
v -496 -368 0
v -480 -368 0
v -544 -400 0
v -560 -400 0
v -560 -384 0
v -544 -384 0
v -480 -400 0
v -496 -400 0
v -496 -384 0
v -480 -384 0
v -624 -416 0
v -640 -416 0
v -640 -400 0
v -624 -400 0
v -608 -416 0
v -624 -416 0
v -624 -400 0
v -608 -400 0
v -576 -416 0
v -592 -416 0
v -592 -400 0
v -576 -400 0
v -560 -416 0
v -576 -416 0
v -576 -400 0
v -560 -400 0
v -544 -416 0
v -560 -416 0
v -560 -400 0
v -544 -400 0
v -608 -432 0
v -624 -432 0
v -624 -416 0
v -608 -416 0
v -576 -432 0
v -592 -432 0
v -592 -416 0
v -576 -416 0
v -560 -432 0
v -576 -432 0
v -576 -416 0
v -560 -416 0
v -608 -448 0
v -624 -448 0
v -624 -432 0
v -608 -432 0
v -512 -496 0
v -528 -496 0
v -528 -480 0
v -512 -480 0
v -416 -496 0
v -432 -496 0
v -432 -480 0
v -416 -480 0
v -576 -512 0
v -592 -512 0
v -592 -496 0
v -576 -496 0
v -512 -512 0
v -528 -512 0
v -528 -496 0
v -512 -496 0
v -416 -512 0
v -432 -512 0
v -432 -496 0
v -416 -496 0
v -624 -528 0
v -640 -528 0
v -640 -512 0
v -624 -512 0
v -576 -528 0
v -592 -528 0
v -592 -512 0
v -576 -512 0
v -624 -544 0
v -640 -544 0
v -640 -528 0
v -624 -528 0

# Texture cooridinates (Count = 32)
vt 0.2809917 0.6463878
vt 0.2975207 0.6463878
vt 0.2975207 0.6768061
vt 0.2809917 0.6768061
vt 0.2809917 0.6140684
vt 0.2975207 0.6140684
vt 0.2975207 0.6444867
vt 0.2809917 0.6444867
vt 0.9132231 0.5494297
vt 0.9297521 0.5494297
vt 0.9297521 0.5798479
vt 0.9132231 0.5798479
vt 0.8956612 0.5817491
vt 0.9121901 0.5817491
vt 0.9121901 0.6121673
vt 0.8956612 0.6121673
vt 0.8605372 0.6463878
vt 0.8770661 0.6463878
vt 0.8770661 0.6768061
vt 0.8605372 0.6768061
vt 0.8429752 0.6463878
vt 0.8595041 0.6463878
vt 0.8595041 0.6768061
vt 0.8429752 0.6768061
vt 0.8605372 0.6140684
vt 0.8770661 0.6140684
vt 0.8770661 0.6444867
vt 0.8605372 0.6444867
vt 0.8429752 0.6140684
vt 0.8595041 0.6140684
vt 0.8595041 0.6444867
vt 0.8429752 0.6444867

# Normal
vn 0 0 -1

# Mesh description
g test_area2_mesh_0004

# Faces
f 1/1/1 2/2/1 3/3/1 4/4/1
f 5/1/1 6/2/1 7/3/1 8/4/1
f 9/5/1 10/6/1 11/7/1 12/8/1
f 13/9/1 14/10/1 15/11/1 16/12/1
f 17/13/1 18/14/1 19/15/1 20/16/1
f 21/17/1 22/18/1 23/19/1 24/20/1
f 25/21/1 26/22/1 27/23/1 28/24/1
f 29/5/1 30/6/1 31/7/1 32/8/1
f 33/1/1 34/2/1 35/3/1 36/4/1
f 37/25/1 38/26/1 39/27/1 40/28/1
f 41/29/1 42/30/1 43/31/1 44/32/1
f 45/5/1 46/6/1 47/7/1 48/8/1
f 49/1/1 50/2/1 51/3/1 52/4/1
f 53/1/1 54/2/1 55/3/1 56/4/1
f 57/1/1 58/2/1 59/3/1 60/4/1
f 61/5/1 62/6/1 63/7/1 64/8/1
f 65/5/1 66/6/1 67/7/1 68/8/1
f 69/1/1 70/2/1 71/3/1 72/4/1
f 73/5/1 74/6/1 75/7/1 76/8/1
f 77/5/1 78/6/1 79/7/1 80/8/1

