# Tiled2Unity generated file. Do not modify by hand.
# Wavefront file for 'test_area2_mesh_0003.obj'

# Vertices (Count = 48)
v -560 -384 0
v -576 -384 0
v -576 -368 0
v -560 -368 0
v -512 -384 0
v -528 -384 0
v -528 -368 0
v -512 -368 0
v -512 -416 0
v -528 -416 0
v -528 -400 0
v -512 -400 0
v -448 -416 0
v -464 -416 0
v -464 -400 0
v -448 -400 0
v -592 -448 0
v -608 -448 0
v -608 -432 0
v -592 -432 0
v -416 -464 0
v -432 -464 0
v -432 -448 0
v -416 -448 0
v -512 -480 0
v -528 -480 0
v -528 -464 0
v -512 -464 0
v -496 -480 0
v -512 -480 0
v -512 -464 0
v -496 -464 0
v -608 -512 0
v -624 -512 0
v -624 -496 0
v -608 -496 0
v -544 -528 0
v -560 -528 0
v -560 -512 0
v -544 -512 0
v -480 -528 0
v -496 -528 0
v -496 -512 0
v -480 -512 0
v -512 -560 0
v -528 -560 0
v -528 -544 0
v -512 -544 0

# Texture cooridinates (Count = 24)
vt 0.5092975 0.6787072
vt 0.5258265 0.6787072
vt 0.5258265 0.7091255
vt 0.5092975 0.7091255
vt 0.5444215 0.6787072
vt 0.5609504 0.6787072
vt 0.5609504 0.7091255
vt 0.5444215 0.7091255
vt 0.4917355 0.6787072
vt 0.5082645 0.6787072
vt 0.5082645 0.7091255
vt 0.4917355 0.7091255
vt 0.2458678 0.7110266
vt 0.2623967 0.7110266
vt 0.2623967 0.7414448
vt 0.2458678 0.7414448
vt 0.9307851 0.4524715
vt 0.947314 0.4524715
vt 0.947314 0.4828897
vt 0.9307851 0.4828897
vt 0.9307851 0.4847909
vt 0.947314 0.4847909
vt 0.947314 0.5152091
vt 0.9307851 0.5152091

# Normal
vn 0 0 -1

# Mesh description
g test_area2_mesh_0003

# Faces
f 1/1/1 2/2/1 3/3/1 4/4/1
f 5/5/1 6/6/1 7/7/1 8/8/1
f 9/1/1 10/2/1 11/3/1 12/4/1
f 13/9/1 14/10/1 15/11/1 16/12/1
f 17/13/1 18/14/1 19/15/1 20/16/1
f 21/9/1 22/10/1 23/11/1 24/12/1
f 25/17/1 26/18/1 27/19/1 28/20/1
f 29/21/1 30/22/1 31/23/1 32/24/1
f 33/5/1 34/6/1 35/7/1 36/8/1
f 37/1/1 38/2/1 39/3/1 40/4/1
f 41/9/1 42/10/1 43/11/1 44/12/1
f 45/5/1 46/6/1 47/7/1 48/8/1

