# Tiled2Unity generated file. Do not modify by hand.
# Wavefront file for 'test_area_mesh_0002.obj'

# Vertices (Count = 160)
v -336 -256 0
v -352 -256 0
v -352 -240 0
v -336 -240 0
v -272 -256 0
v -288 -256 0
v -288 -240 0
v -272 -240 0
v -352 -272 0
v -368 -272 0
v -368 -256 0
v -352 -256 0
v -336 -272 0
v -352 -272 0
v -352 -256 0
v -336 -256 0
v -304 -272 0
v -320 -272 0
v -320 -256 0
v -304 -256 0
v -272 -272 0
v -288 -272 0
v -288 -256 0
v -272 -256 0
v -384 -288 0
v -400 -288 0
v -400 -272 0
v -384 -272 0
v -352 -288 0
v -368 -288 0
v -368 -272 0
v -352 -272 0
v -304 -288 0
v -320 -288 0
v -320 -272 0
v -304 -272 0
v -272 -288 0
v -288 -288 0
v -288 -272 0
v -272 -272 0
v -384 -304 0
v -400 -304 0
v -400 -288 0
v -384 -288 0
v -352 -304 0
v -368 -304 0
v -368 -288 0
v -352 -288 0
v -336 -304 0
v -352 -304 0
v -352 -288 0
v -336 -288 0
v -320 -304 0
v -336 -304 0
v -336 -288 0
v -320 -288 0
v -304 -304 0
v -320 -304 0
v -320 -288 0
v -304 -288 0
v -288 -304 0
v -304 -304 0
v -304 -288 0
v -288 -288 0
v -272 -304 0
v -288 -304 0
v -288 -288 0
v -272 -288 0
v -384 -320 0
v -400 -320 0
v -400 -304 0
v -384 -304 0
v -320 -320 0
v -336 -320 0
v -336 -304 0
v -320 -304 0
v -304 -320 0
v -320 -320 0
v -320 -304 0
v -304 -304 0
v -288 -320 0
v -304 -320 0
v -304 -304 0
v -288 -304 0
v -208 -320 0
v -224 -320 0
v -224 -304 0
v -208 -304 0
v -384 -336 0
v -400 -336 0
v -400 -320 0
v -384 -320 0
v -336 -336 0
v -352 -336 0
v -352 -320 0
v -336 -320 0
v -240 -336 0
v -256 -336 0
v -256 -320 0
v -240 -320 0
v -304 -352 0
v -320 -352 0
v -320 -336 0
v -304 -336 0
v -304 -368 0
v -320 -368 0
v -320 -352 0
v -304 -352 0
v -272 -368 0
v -288 -368 0
v -288 -352 0
v -272 -352 0
v -304 -384 0
v -320 -384 0
v -320 -368 0
v -304 -368 0
v -320 -400 0
v -336 -400 0
v -336 -384 0
v -320 -384 0
v -304 -400 0
v -320 -400 0
v -320 -384 0
v -304 -384 0
v -288 -400 0
v -304 -400 0
v -304 -384 0
v -288 -384 0
v -272 -400 0
v -288 -400 0
v -288 -384 0
v -272 -384 0
v -304 -416 0
v -320 -416 0
v -320 -400 0
v -304 -400 0
v -144 -416 0
v -160 -416 0
v -160 -400 0
v -144 -400 0
v -288 -432 0
v -304 -432 0
v -304 -416 0
v -288 -416 0
v -272 -432 0
v -288 -432 0
v -288 -416 0
v -272 -416 0
v -160 -432 0
v -176 -432 0
v -176 -416 0
v -160 -416 0
v -272 -448 0
v -288 -448 0
v -288 -432 0
v -272 -432 0
v -160 -448 0
v -176 -448 0
v -176 -432 0
v -160 -432 0

# Texture cooridinates (Count = 64)
vt 0.2809917 0.6463878
vt 0.2975207 0.6463878
vt 0.2975207 0.6768061
vt 0.2809917 0.6768061
vt 0.2809917 0.6140684
vt 0.2975207 0.6140684
vt 0.2975207 0.6444867
vt 0.2809917 0.6444867
vt 0.9132231 0.5494297
vt 0.9297521 0.5494297
vt 0.9297521 0.5798479
vt 0.9132231 0.5798479
vt 0.8956612 0.5817491
vt 0.9121901 0.5817491
vt 0.9121901 0.6121673
vt 0.8956612 0.6121673
vt 0.8605372 0.6463878
vt 0.8770661 0.6463878
vt 0.8770661 0.6768061
vt 0.8605372 0.6768061
vt 0.8429752 0.6463878
vt 0.8595041 0.6463878
vt 0.8595041 0.6768061
vt 0.8429752 0.6768061
vt 0.8605372 0.6140684
vt 0.8770661 0.6140684
vt 0.8770661 0.6444867
vt 0.8605372 0.6444867
vt 0.8429752 0.6140684
vt 0.8595041 0.6140684
vt 0.8595041 0.6444867
vt 0.8429752 0.6444867
vt 0.05268595 0.743346
vt 0.06921487 0.743346
vt 0.06921487 0.7737643
vt 0.05268595 0.7737643
vt 0.2458678 0.7110266
vt 0.2623967 0.7110266
vt 0.2623967 0.7414448
vt 0.2458678 0.7414448
vt 0.05268595 0.6463878
vt 0.06921487 0.6463878
vt 0.06921487 0.6768061
vt 0.05268595 0.6768061
vt 0.1580579 0.743346
vt 0.1745868 0.743346
vt 0.1745868 0.7737643
vt 0.1580579 0.7737643
vt 0.08780992 0.5817491
vt 0.1043388 0.5817491
vt 0.1043388 0.6121673
vt 0.08780992 0.6121673
vt 0.1229339 0.5817491
vt 0.1394628 0.5817491
vt 0.1394628 0.6121673
vt 0.1229339 0.6121673
vt 0.1580579 0.7110266
vt 0.1745868 0.7110266
vt 0.1745868 0.7414448
vt 0.1580579 0.7414448
vt 0.08780992 0.6140684
vt 0.1043388 0.6140684
vt 0.1043388 0.6444867
vt 0.08780992 0.6444867

# Normal
vn 0 0 -1

# Mesh description
g test_area_mesh_0002

# Faces
f 1/1/1 2/2/1 3/3/1 4/4/1
f 5/1/1 6/2/1 7/3/1 8/4/1
f 9/1/1 10/2/1 11/3/1 12/4/1
f 13/5/1 14/6/1 15/7/1 16/8/1
f 17/1/1 18/2/1 19/3/1 20/4/1
f 21/5/1 22/6/1 23/7/1 24/8/1
f 25/1/1 26/2/1 27/3/1 28/4/1
f 29/5/1 30/6/1 31/7/1 32/8/1
f 33/5/1 34/6/1 35/7/1 36/8/1
f 37/1/1 38/2/1 39/3/1 40/4/1
f 41/5/1 42/6/1 43/7/1 44/8/1
f 45/9/1 46/10/1 47/11/1 48/12/1
f 49/13/1 50/14/1 51/15/1 52/16/1
f 53/17/1 54/18/1 55/19/1 56/20/1
f 57/21/1 58/22/1 59/23/1 60/24/1
f 61/1/1 62/2/1 63/3/1 64/4/1
f 65/5/1 66/6/1 67/7/1 68/8/1
f 69/1/1 70/2/1 71/3/1 72/4/1
f 73/25/1 74/26/1 75/27/1 76/28/1
f 77/29/1 78/30/1 79/31/1 80/32/1
f 81/5/1 82/6/1 83/7/1 84/8/1
f 85/33/1 86/34/1 87/35/1 88/36/1
f 89/5/1 90/6/1 91/7/1 92/8/1
f 93/37/1 94/38/1 95/39/1 96/40/1
f 97/41/1 98/42/1 99/43/1 100/44/1
f 101/45/1 102/46/1 103/47/1 104/48/1
f 105/45/1 106/46/1 107/47/1 108/48/1
f 109/33/1 110/34/1 111/35/1 112/36/1
f 113/45/1 114/46/1 115/47/1 116/48/1
f 117/49/1 118/50/1 119/51/1 120/52/1
f 121/53/1 122/54/1 123/55/1 124/56/1
f 125/57/1 126/58/1 127/59/1 128/60/1
f 129/57/1 130/58/1 131/59/1 132/60/1
f 133/61/1 134/62/1 135/63/1 136/64/1
f 137/33/1 138/34/1 139/35/1 140/36/1
f 141/33/1 142/34/1 143/35/1 144/36/1
f 145/33/1 146/34/1 147/35/1 148/36/1
f 149/33/1 150/34/1 151/35/1 152/36/1
f 153/33/1 154/34/1 155/35/1 156/36/1
f 157/33/1 158/34/1 159/35/1 160/36/1

