# Tiled2Unity generated file. Do not modify by hand.
# Wavefront file for 'inside_tent_starter_mesh_0003.obj'

# Vertices (Count = 24)
v -128 -64 0
v -144 -64 0
v -144 -48 0
v -128 -48 0
v -64 -96 0
v -80 -96 0
v -80 -80 0
v -64 -80 0
v -48 -96 0
v -64 -96 0
v -64 -80 0
v -48 -80 0
v -32 -96 0
v -48 -96 0
v -48 -80 0
v -32 -80 0
v -16 -96 0
v -32 -96 0
v -32 -80 0
v -16 -80 0
v -112 -160 0
v -128 -160 0
v -128 -144 0
v -112 -144 0

# Texture cooridinates (Count = 24)
vt 0.2458678 0.9372624
vt 0.2623967 0.9372624
vt 0.2623967 0.9676806
vt 0.2458678 0.9676806
vt 0.3863636 0.8079848
vt 0.4028926 0.8079848
vt 0.4028926 0.838403
vt 0.3863636 0.838403
vt 0.3512397 0.7756654
vt 0.3677686 0.7756654
vt 0.3677686 0.8060837
vt 0.3512397 0.8060837
vt 0.3336777 0.7756654
vt 0.3502066 0.7756654
vt 0.3502066 0.8060837
vt 0.3336777 0.8060837
vt 0.3688017 0.8079848
vt 0.3853306 0.8079848
vt 0.3853306 0.838403
vt 0.3688017 0.838403
vt 0.6322314 0.9372624
vt 0.6487603 0.9372624
vt 0.6487603 0.9676806
vt 0.6322314 0.9676806

# Normal
vn 0 0 -1

# Mesh description
g inside_tent_starter_mesh_0003

# Faces
f 1/1/1 2/2/1 3/3/1 4/4/1
f 5/5/1 6/6/1 7/7/1 8/8/1
f 9/9/1 10/10/1 11/11/1 12/12/1
f 13/13/1 14/14/1 15/15/1 16/16/1
f 17/17/1 18/18/1 19/19/1 20/20/1
f 21/21/1 22/22/1 23/23/1 24/24/1

